<svg
	xmlns="http://www.w3.org/2000/svg"
	viewBox="504 170 125 90"
	aria-label="Map of Iowa">
	<path
			id="scott-ia"
			name="Scott, IA"
			d="m610.29 222.59 1.9112-0.104 5.723-0.162 2.3284 0.685-0.26565 2.505-0.89143 1.198-1.0198 1.189-3.2466 1.608-1.3835 0.353-0.58656 0.02-0.24782-0.03-0.19061-3.3055-1.9399 0.0765-0.19077-4.027"
	/>
	<path
			id="clinton-ia"
			name="Clinton, IA"
			d="m609.97 216.53 12.63-0.717 0.18542 2.405-1.3265 3.437-1.2052 1.352-2.3284-0.685-5.723 0.162-1.9112 0.104-0.21751-4.033-0.1034-2.025"
	/>
	<path
			id="lyon-ia"
			name="Lyon, IA"
			d="m513.29 184.93 2.4247 0.02 6.6608 0.02h3.1913l-9e-3 5.592-11.981-0.09-0.052-1.1311 1.0214-0.0616-0.0458-1.6821-1.1389-1.2892-0.0718-1.388"
	/>
	<path
			id="sioux-ia"
			name="Sioux, IA"
			d="m513.58 190.48 11.981 0.09 0.0571 8.045-11.145-0.02 1.1642-4.019 0.26565-0.708 0.0481-0.158-0.64361-2.314-0.15868-0.08h-1.1981l-0.37083-0.836"
	/>
	<path
			id="plymouth-ia"
			name="Plymouth, IA"
			d="m525.62 198.61v8.049l-10.455-0.02-0.60975-1.606-0.43502-0.699-0.55447-0.515-0.44037-0.337 0.67393-3.084 0.6757-1.801 11.145 0.02"
	/>
	<path
			id="cherokee-ia"
			name="Cherokee, IA"
			d="m533.53 198.57 0.0553 8.044-5.969 0.03-2.0022 0.01v-8.049l7.916-0.04"
	/>
	<path
			id="o-brien-ia"
			name="O Brien, IA"
			d="m525.56 190.57 7.9231 0.02 0.0499 7.978-7.916 0.04-0.0571-8.045"
	/>
	<path
			id="osceola-ia"
			name="Osceola, IA"
			d="m532.35 184.94h1.109l0.0303 5.657-7.9231-0.02 9e-3 -5.592 6.7749-0.04"
	/>
	<path
			id="dickinson-ia"
			name="Dickinson, IA"
			d="m533.45 184.94 7.866-0.07 0.0874 5.655-7.9231 0.07-0.0303-5.657"
	/>
	<path
			id="clay-ia"
			name="Clay, IA"
			d="m533.48 190.59 7.9231-0.07 0.0891 7.981-7.9623 0.07-0.0499-7.978"
	/>
	<path
			id="buena-vista-ia"
			name="Buena Vista, IA"
			d="m541.5 198.5 0.0802 8.074-7.9872 0.04-0.0553-8.044 7.9623-0.07"
	/>
	<path
			id="pocahontas-ia"
			name="Pocahontas, IA"
			d="m541.5 198.5 7.907-0.07 0.0963 6.082 0.041 1.984-7.9641 0.08-0.0802-8.074"
	/>
	<path
			id="palo-alto-ia"
			name="Palo Alto, IA"
			d="m549.27 190.42 0.13728 8.012-7.907 0.07-0.0891-7.981 7.8589-0.103"
	/>
	<path
			id="emmet-ia"
			name="Emmet, IA"
			d="m549.18 184.75 0.0874 5.666-7.8589 0.103-0.0874-5.655 1.0127-0.02 6.8462-0.1"
	/>
	<path
			id="kossuth-ia"
			name="Kossuth, IA"
			d="m557.04 184.62 0.12837 5.641 0.15154 8.028-7.9142 0.137-0.13728-8.012-0.0874-5.666 3.2555-0.05 4.6034-0.07"
	/>
	<path
			id="humboldt-ia"
			name="Humboldt, IA"
			d="m549.4 198.43 7.9142-0.137 0.13015 6.074-7.948 0.145-0.0963-6.082"
	/>
	<path
			id="woodbury-ia"
			name="Woodbury, IA"
			d="m525.62 206.66 2.0022-0.01 7e-3 1.672 0.65966 0.327h0.55269v6.09l-11.628-0.09 0.21038-1.422-0.51525-0.965-0.19968-2.646 0.11945-0.319-7e-3 -0.355-0.0713-0.265-0.17829-0.248-0.22464-0.09-0.57765-0.04-0.60439-1.666 10.455 0.02"
	/>
	<path
			id="ida-ia"
			name="Ida, IA"
			d="m533.59 206.62 0.016 2.01h1.1l0.025 6.11-5.8906 0.01v-6.09h-0.55269l-0.65966-0.327-7e-3 -1.672 5.969-0.03"
	/>
	<path
			id="sac-ia"
			name="Sac, IA"
			d="m533.59 206.62 7.9872-0.04 0.0161 1.988h0.98058l0.0481 6.114-3.9455 0.02-3.9455 0.03-0.025-6.11h-1.1l-0.016-2.01"
	/>
	<path
			id="calhoun-ia"
			name="Calhoun, IA"
			d="m541.58 206.57 7.9641-0.08 0.025 1.977h0.7702l0.10519 6.108-3.9223 0.06-3.8974 0.05-0.0481-6.114h-0.98058l-0.0161-1.988"
	/>
	<path
			id="webster-ia"
			name="Webster, IA"
			d="m557.45 204.37 0.0802 3.987h0.67571l0.1355 6.049-7.8981 0.18-0.10519-6.108h-0.7702l-0.025-1.977-0.041-1.984 7.948-0.145"
	/>
	<path
			id="greene-ia"
			name="Greene, IA"
			d="m550.44 214.57 3.9455-0.09 0.16759 8.017-1.9861 0.04-5.937 0.107-0.11232-8.02 3.9223-0.06"
	/>
	<path
			id="carroll-ia"
			name="Carroll, IA"
			d="m542.62 214.68 3.8974-0.05 0.11232 8.02-1.9772 0.03-5.9298 0.05-0.0481-8.026 3.9455-0.02"
	/>
	<path
			id="crawford-ia"
			name="Crawford, IA"
			d="m538.68 214.7 0.0481 8.026-7.9142 0.05-1.9701 0.02v-8.053l5.8906-0.01 3.9455-0.03"
	/>
	<path
			id="monona-ia"
			name="Monona, IA"
			d="m528.84 214.74v8.053l-7.9623-0.06-2.2589-4.195-1.4067-3.889 11.628 0.09"
	/>
	<path
			id="harrison-ia"
			name="Harrison, IA"
			d="m530.81 222.78 7e-3 6.051h1.0287l9e-3 2.227h-8.2761l-2.3962-4.065-0.30487-4.243 7.9623 0.06 1.9701-0.02"
	/>
	<path
			id="shelby-ia"
			name="Shelby, IA"
			d="m530.81 222.78 7.9142-0.05 0.0553 6.042h0.89322l0.025 2.248-1.9612 0.01-5.8817 0.02-9e-3 -2.227h-1.0287l-7e-3 -6.051"
	/>
	<path
			id="audubon-ia"
			name="Audubon, IA"
			d="m538.72 222.73 5.9298-0.05 0.0802 5.004 0.75772 1.004 0.0303 2.27-5.8246 0.05-0.025-2.248h-0.89322l-0.0553-6.042"
	/>
	<path
			id="guthrie-ia"
			name="Guthrie, IA"
			d="m546.63 222.65 5.937-0.107 0.1141 6.053h0.66679l0.0392 2.251-7.866 0.113-0.0303-2.27-0.75772-1.004-0.0802-5.004 1.9772-0.03"
	/>
	<path
			id="adair-ia"
			name="Adair, IA"
			d="m553.39 230.84 0.14619 8.018-3.9455 0.06-3.9526 0.05-0.11411-8.01 7.866-0.113"
	/>
	<path
			id="cass-ia"
			name="Cass, IA"
			d="m545.52 230.96 0.11411 8.01-3.9152 0.04-3.9294 0.02-0.0553-8.009 1.9612-0.01 5.8246-0.05"
	/>
	<path
			id="pottawattamie-ia"
			name="Pottawattamie, IA"
			d="m531.86 231.04 5.8817-0.02 0.0553 8.009-3.9134 0.03-8.0907 0.02-1.2052-0.724-0.25674-4.677-0.74702-2.635h8.2761"
	/>
	<path
			id="fremont-ia"
			name="Fremont, IA"
			d="m526.32 245.06 7.5665-0.03 0.025 3.119 0.20147 2.588 0.016 1.726-6.7981-0.07-1.5511-4.598 0.54021-2.732"
	/>
	<path
			id="mills-ia"
			name="Mills, IA"
			d="m533.88 239.06 7e-3 5.963-7.5665 0.03-0.76485-3.358 0.23356-2.619 8.0907-0.02"
	/>
	<path
			id="montgomery-ia"
			name="Montgomery, IA"
			d="m537.79 239.03 3.9294-0.02 0.0481 5.967-7.8838 0.05-7e-3 -5.963 3.9134-0.03"
	/>
	<path
			id="page-ia"
			name="Page, IA"
			d="m541.77 244.98 0.0499 4.012h0.26387l0.016 3.528-4.9974-0.03-2.9738-0.02-0.016-1.726-0.20147-2.588-0.025-3.119 7.8838-0.05"
	/>
	<path
			id="taylor-ia"
			name="Taylor, IA"
			d="m549.69 244.9 0.11232 7.609-2.7866 0.03-4.9118-0.02-0.016-3.528h-0.26387l-0.0499-4.012 7.916-0.08"
	/>
	<path
			id="adams-ia"
			name="Adams, IA"
			d="m549.59 238.92 0.0963 5.978-7.916 0.08-0.0481-5.967 3.9152-0.04 3.9526-0.05"
	/>
	<path
			id="union-ia"
			name="Union, IA"
			d="m553.53 238.86 3.9134-0.06 0.11945 6.012-7.8821 0.09-0.0963-5.978 3.9455-0.06"
	/>
	<path
			id="ringgold-ia"
			name="Ringgold, IA"
			d="m549.69 244.9 7.8821-0.09 0.13728 7.481-3.7601 0.117-4.147 0.1-0.11232-7.609"
	/>
	<path
			id="decatur-ia"
			name="Decatur, IA"
			d="m557.57 244.81 7.907-0.211 0.18542 7.36-3.769 0.155-4.1862 0.177-0.13728-7.481"
	/>
	<path
			id="clarke-ia"
			name="Clarke, IA"
			d="m565.31 238.51 0.16759 6.092-7.907 0.211-0.11945-6.012 3.8724-0.209 3.9865-0.08"
	/>
	<path
			id="madison-ia"
			name="Madison, IA"
			d="m561.11 230.49 0.20859 8.101-3.8724 0.209-3.9134 0.06-0.14619-8.018 7.7234-0.356"
	/>
	<path
			id="dallas-ia"
			name="Dallas, IA"
			d="m560.49 222.37 0.14441 5.078 0.42433 1.005 0.0571 2.04-7.7234 0.356-0.0392-2.251h-0.66679l-0.1141-6.053 1.9861-0.04 5.9316-0.137"
	/>
	<path
			id="boone-ia"
			name="Boone, IA"
			d="m562.29 214.32 0.20147 7.996-2.0093 0.05-5.9316 0.137-0.16759-8.017 3.9526-0.09 3.9544-0.07"
	/>
	<path
			id="hamilton-ia"
			name="Hamilton, IA"
			d="m565.46 206.19 0.82725 8.032-3.9918 0.1-3.9544 0.07-0.1355-6.049h-0.67571l-0.0392-1.985 7.9694-0.176"
	/>
	<path
			id="wright-ia"
			name="Wright, IA"
			d="m557.32 198.29 7.9409-0.209 0.19969 8.109-7.9694 0.176-0.041-2.002-0.13015-6.074"
	/>
	<path
			id="hancock-ia"
			name="Hancock, IA"
			d="m565.07 190.07 0.19255 8.012-7.9409 0.209-0.15154-8.028 7.8999-0.193"
	/>
	<path
			id="winnebago-ia"
			name="Winnebago, IA"
			d="m564.92 184.44 0.14441 5.634-7.8999 0.193-0.12837-5.641 5.3593-0.121 2.5245-0.06"
	/>
	<path
			id="worth-ia"
			name="Worth, IA"
			d="m572.79 184.2 0.18364 5.635-7.9052 0.232-0.14441-5.634 7.456-0.215 0.41006-0.02"
	/>
	<path
			id="cerro-gordo-ia"
			name="Cerro Gordo, IA"
			d="m565.07 190.07 7.9052-0.232 0.0321 0.988 0.20147 7.039-7.9463 0.217-0.19255-8.012"
	/>
	<path
			id="franklin-ia"
			name="Franklin, IA"
			d="m565.26 198.08 7.9463-0.217 0.22464 8.116-7.9712 0.21-0.19969-8.109"
	/>
	<path
			id="hardin-ia"
			name="Hardin, IA"
			d="m573.43 205.98 0.68462 8.01-3.9063 0.13-3.9223 0.102-0.82725-8.032 7.9712-0.21"
	/>
	<path
			id="story-ia"
			name="Story, IA"
			d="m570.21 214.12 0.23177 8.003-1.9754 0.05-5.969 0.146-0.20147-7.996 3.9918-0.1 3.9223-0.102"
	/>
	<path
			id="polk-ia"
			name="Polk, IA"
			d="m568.46 222.17 0.55448 8.215 0.0143 0.369-7.9213-0.267-0.0571-2.04-0.42433-1.005-0.14441-5.078 2.0093-0.05 5.969-0.146"
	/>
	<path
			id="warren-ia"
			name="Warren, IA"
			d="m569.03 230.76 0.22464 7.656-3.9508 0.1-3.9865 0.08-0.20859-8.101 7.9213 0.267"
	/>
	<path
			id="lucas-ia"
			name="Lucas, IA"
			d="m569.26 238.41 3.9401-0.112 0.20682 6.069-7.9302 0.231-0.16759-6.092 3.9508-0.1"
	/>
	<path
			id="wayne-ia"
			name="Wayne, IA"
			d="m573.4 244.37 0.23355 7.281-4.8048 0.223-3.1735 0.09-0.18542-7.36 7.9302-0.231"
	/>
	<path
			id="appanoose-ia"
			name="Appanoose, IA"
			d="m581.32 244.09 0.27991 7.135-1.3264 0.07-6.6376 0.348-0.23355-7.281 7.9177-0.275"
	/>
	<path
			id="monroe-ia"
			name="Monroe, IA"
			d="m581.09 238.03 0.23534 6.065-7.9177 0.275-0.20682-6.069 3.9455-0.129 3.9437-0.142"
	/>
	<path
			id="marion-ia"
			name="Marion, IA"
			d="m576.85 230.13 0.29061 8.042-3.9455 0.129-3.9401 0.112-0.22464-7.656-0.0143-0.369 7.8339-0.258"
	/>
	<path
			id="jasper-ia"
			name="Jasper, IA"
			d="m570.44 222.12 7.9302-0.24 0.44393 8.171-1.9612 0.07-7.8339 0.258-0.55448-8.215 1.9754-0.05"
	/>
	<path
			id="marshall-ia"
			name="Marshall, IA"
			d="m574.11 213.99 3.9598-0.144 0.29596 8.037-7.9302 0.24-0.23177-8.003 3.9063-0.13"
	/>
	<path
			id="grundy-ia"
			name="Grundy, IA"
			d="m581.42 205.73 0.54735 5.958-3.9556 0.156 0.0654 2-3.9598 0.144-0.68462-8.01 7.9872-0.248"
	/>
	<path
			id="butler-ia"
			name="Butler, IA"
			d="m573.21 197.87 7.8999-0.248 0.21751 6.115 0.0945 2.001-7.9872 0.248-0.22464-8.116"
	/>
	<path
			id="floyd-ia"
			name="Floyd, IA"
			d="m573 190.83 7.8428-0.266 0.25851 7.057-7.8999 0.248-0.20147-7.039"
	/>
	<path
			id="mitchell-ia"
			name="Mitchell, IA"
			d="m580.63 183.92 0.21573 6.637-7.8428 0.266-0.21573-6.623 7.8428-0.28"
	/>
	<path
			id="howard-ia"
			name="Howard, IA"
			d="m582.37 183.86 6.1295-0.25 0.26565 6.638-7.9159 0.313-0.21573-6.637 1.7365-0.06"
	/>
	<path
			id="chickasaw-ia"
			name="Chickasaw, IA"
			d="m588.76 190.25 0.11054 3.007 0.16224 4.056-7.9302 0.307-0.25851-7.057 7.9159-0.313"
	/>
	<path
			id="bremer-ia"
			name="Bremer, IA"
			d="m581.11 197.62 7.9302-0.307 0.25138 6.116-7.9641 0.306-0.21751-6.115"
	/>
	<path
			id="black-hawk-ia"
			name="Black Hawk, IA"
			d="m589.29 203.43 0.17294 4.027 0.31557 0.514 0.12837 3.416-3.9615 0.153-3.9776 0.155-0.54735-5.958-0.0945-2.001 7.9641-0.306"
	/>
	<path
			id="tama-ia"
			name="Tama, IA"
			d="m585.94 211.54 0.40114 10.048-7.973 0.3-0.36802-10.038 7.9399-0.31"
	/>
	<path
			id="poweshiek-ia"
			name="Poweshiek, IA"
			d="m578.37 221.88 7.973-0.3 0.33162 8.166-1.9629 0.08-5.8977 0.225-0.44393-8.171"
	/>
	<path
			id="mahaska-ia"
			name="Mahaska, IA"
			d="m578.81 230.06 5.8977-0.225 0.33874 8.037-3.9633 0.161-3.9437 0.142-0.29061-8.042 1.9612-0.07"
	/>
	<path
			id="wapello-ia"
			name="Wapello, IA"
			d="m585.05 237.87 3.9615-0.171 0.25673 6.083-7.9462 0.314-0.23534-6.065 3.9633-0.161"
	/>
	<path
			id="davis-ia"
			name="Davis, IA"
			d="m589.27 243.78 0.26387 6.919-2.956 0.193-4.9742 0.337-0.27991-7.135 7.9462-0.314"
	/>
	<path
			id="van-buren-ia"
			name="Van Buren, IA"
			d="m589.27 243.78 7.9552-0.369 0.082 2.025 0.26208 4.964-3.9366 0.01-4.0988 0.288-0.26387-6.919"
	/>
	<path
			id="jefferson-ia"
			name="Jefferson, IA"
			d="m596.99 237.35 0.23356 6.058-7.9552 0.369-0.25673-6.083 4.0239-0.193 3.9544-0.151"
	/>
	<path
			id="benton-ia"
			name="Benton, IA"
			d="m593.86 211.17 0.43502 10.107-7.948 0.305-0.40114-10.048 3.9615-0.153 3.9526-0.211"
	/>
	<path
			id="iowa-ia"
			name="Iowa, IA"
			d="m586.34 221.58 7.948-0.305 0.39223 8.091-1.9915 0.107-6.0172 0.273-0.33162-8.166"
	/>
	<path
			id="keokuk-ia"
			name="Keokuk, IA"
			d="m586.67 229.75 6.0172-0.273 0.3441 8.026-4.0239 0.193-3.9615 0.171-0.33874-8.037 1.9629-0.08"
	/>
	<path
			id="washington-ia"
			name="Washington, IA"
			d="m594.68 229.37 5.288-0.23 0.2817 0.401 0.44215 1.583 0.2496 6.05-3.9544 0.178-3.9544 0.151-0.3441-8.026 1.9915-0.107"
	/>
	<path
			id="henry-ia"
			name="Henry, IA"
			d="m600.94 237.17 1.9762-0.054 0.10437 1.999 0.0592 6.083-5.7786 0.233-0.082-2.025-0.23356-6.058 3.9544-0.178"
	/>
	<path
			id="lee-ia"
			name="Lee, IA"
			d="m597.31 245.44 5.7786-0.233 4.8437 2.435-1.207 1.416-0.56161 0.01-0.45819 0.03h-0.14429l-0.90926 0.319-0.025 0.02-0.10341 0.06-0.43502 0.248-0.15332 0.1-0.0535 0.06-0.0642 0.06-0.0642 0.07-0.73097 1.123-0.0267 0.171 0.0571 0.192 0.35479 0.168 0.28882 0.419 0.0963 0.28 0.0143 0.232-0.0464 2.068-7e-3 0.01-0.041 0.202-0.18364 0.153-0.025 0.01-0.53129 0.187-1.1393-0.08-0.72563-0.586-1.7508-2.154-0.0642-0.16 0.0571-0.467-0.041-0.152-1.3746-1.038-0.36193-0.226-0.26208-4.964"
	/>
	<path
			id="des-moines-ia"
			name="Des Moines, IA"
			d="m610.28 238.78 0.016 0.06 0.0642 0.2 0.0874 0.62-0.0695 1.872-0.1462 0.683-0.0963 0.144-0.49742 0.282-0.18542 0.182-1.3425 1.915-0.0642 0.297-0.11945 2.603-4.8437-2.435-0.0592-6.083 7.2563-0.337"
	/>
	<path
			id="louisa-ia"
			name="Louisa, IA"
			d="m600.7 231.12 1.9772-0.08 0.0874 2.017 4.9653-0.193-0.49029 1.963 0.0178 0.191 7e-3 0.02 1.1642 1.399 0.54912 0.273 0.22999-0.03 0.13907 0.06 0.14619 0.152 0.80942 1.326-0.016 0.555-7.2563 0.337-0.10437-1.999-1.9762 0.054-0.2496-6.05"
	/>
	<path
			id="muscatine-ia"
			name="Muscatine, IA"
			d="m610.48 226.62 1.9399-0.0765 0.19061 3.3055h-1.0519l-2.4104 0.658-0.6454 0.233-0.18364 0.12h-0.016l-0.12124 0.171-0.016 0.05-0.23891 0.982-0.20325 0.788-4.9653 0.192-0.0874-2.016-0.16046-4.051 7.9694-0.376"
	/>
	<path
			id="johnson-ia"
			name="Johnson, IA"
			d="m602.22 220.95 0.29061 6.042 0.16046 4.051-1.9772 0.08-0.44215-1.583-0.2817-0.401-5.288 0.23-0.39223-8.091 7.9302-0.328"
	/>
	<path
			id="linn-ia"
			name="Linn, IA"
			d="m601.78 210.87 0.34766 8.068 0.0945 2.016-7.9302 0.328-0.43502-10.107 3.9704-0.114 3.9526-0.191"
	/>
	<path
			id="cedar-ia"
			name="Cedar, IA"
			d="m610.07 218.56 0.21751 4.033 0.19077 4.027-7.9694 0.376-0.3851-8.058 7.9462-0.378"
	/>
	<path
			id="jones-ia"
			name="Jones, IA"
			d="m605.72 210.68 3.9205-0.194 0.32449 6.044 0.1034 2.025-7.9462 0.378-0.34766-8.068 3.9455-0.185"
	/>
	<path
			id="buchanan-ia"
			name="Buchanan, IA"
			d="m597.28 203.04 0.0481 1.752 0.11232 2.282 0.2906 2.209 0.0963 1.776-3.9704 0.114-3.9526 0.211-0.12837-3.416-0.31557-0.514-0.17294-4.027 7.9926-0.387"
	/>
	<path
			id="fayette-ia"
			name="Fayette, IA"
			d="m588.87 193.25 7.9748-0.324 0.43146 10.109-7.9926 0.387-0.25138-6.116-0.16224-4.056"
	/>
	<path
			id="winneshiek-ia"
			name="Winneshiek, IA"
			d="m596.3 183.27 0.16759 3.657h0.12124l0.25851 6.01-7.9748 0.324-0.11054-3.007-0.26565-6.638 5.8193-0.248 1.9843-0.09"
	/>
	<path
			id="allamakee-ia"
			name="Allamakee, IA"
			d="m602.84 182.96 0.28882 1.776-0.016 1.182 1.7846 1.255 0.38688 0.491 0.50456 0.811-0.0642 0.287-1.2837 2.162-0.43681 1.696-7.1564 0.312-0.25851-6.01h-0.12124l-0.16759-3.657 6.5396-0.314"
	/>
	<path
			id="clayton-ia"
			name="Clayton, IA"
			d="m604 192.62 0.35658 2.186 0.37618 1.758 1.535 3.408 0.2086 0.434 1.3568 0.9 0.46712 0.216 0.8843 0.21-3.9294 0.877-7.9801 0.432-0.43146-10.109 7.1564-0.312"
	/>
	<path
			id="delaware-ia"
			name="Delaware, IA"
			d="m597.28 203.04 7.9801-0.432 0.46533 8.075-3.9455 0.185-3.9526 0.191-0.0963-1.776-0.2906-2.209-0.11232-2.282-0.0481-1.752"
	/>
	<path
			id="dubuque-ia"
			name="Dubuque, IA"
			d="m605.26 202.61 3.9294-0.877 2.1769 0.417 0.8433 0.202 0.19255 0.09 0.12124 0.122 1.0697 1.945 0.18363 0.579 0.0107 0.13-0.0642 0.111-0.23534 0.403-7e-3 0.05 0.016 0.129 0.0392 0.115 0.13728 0.143 0.39223 0.282 1.1357 0.586 1.4441 1.006h7e-3l0.0428 0.04-3.2145 0.168 0.10519 2.023-3.9402 0.202-3.9205 0.194-0.46533-8.075"
	/>
	<path
			id="jackson-ia"
			name="Jackson, IA"
			d="m616.69 208.1 1.0109 1.171 0.0481 0.07 9e-3 0.09-0.0963 0.65-0.0963 0.216v0.146l0.23534 0.53 0.0125 0.03 0.48316 0.602 0.016 0.01 0.29061 0.233 0.312 0.202 0.7078 0.226 2.972 3.541-12.63 0.717-0.32449-6.044 3.9402-0.202-0.10519-2.023 3.2145-0.168"
	/>
</svg>
